<svg xmlns="http://www.w3.org/2000/svg" xmlns:xlink="http://www.w3.org/1999/xlink" version="1.1" width="1000" height="1000" viewBox="0 0 1000 1000" xml:space="preserve">
<desc>Created with Fabric.js 3.5.0</desc>
<defs>
</defs>
<rect x="0" y="0" width="100%" height="100%" fill="#ffffff"/>
<g transform="matrix(28.4091 0 0 28.4091 482.4562 500)" id="SvgjsG1008">
<path style="stroke: none; stroke-width: 1; stroke-dasharray: none; stroke-linecap: butt; stroke-dashoffset: 0; stroke-linejoin: miter; stroke-miterlimit: 4; is-custom-font: none; font-file-url: none; fill: rgb(0,0,0); fill-rule: nonzero; opacity: 1;" transform=" translate(-16.0037, -15.9975)" d="M 16 2 a 1 1 0 0 0 -1 1 V 7 a 1 1 0 0 0 2 0 V 4.0507 A 11.993 11.993 0 1 1 7.5166 7.5171 A 1 1 0 0 0 6.1025 6.103 A 13.9968 13.9968 0 1 0 16 2 Z" stroke-linecap="round"/>
</g>
<g transform="matrix(-28.282 2.6843 -2.6843 -28.282 580.2005 562.8873)" id="SvgjsG1008">
<path style="stroke: none; stroke-width: 1; stroke-dasharray: none; stroke-linecap: butt; stroke-dashoffset: 0; stroke-linejoin: miter; stroke-miterlimit: 4; is-custom-font: none; font-file-url: none; fill: rgb(0,0,0); fill-rule: nonzero; opacity: 1;" transform=" translate(-13.0061, -13.0061)" d="M 16 17 a 1 1 0 0 0 0.707 -1.707 l -6 -6 a 1 1 0 0 0 -1.414 1.414 l 6 6 A 0.9967 0.9967 0 0 0 16 17 Z" stroke-linecap="round"/>
</g>
</svg>