<svg id="SvgjsSvg1001" width="288" height="288" xmlns="http://www.w3.org/2000/svg" version="1.1" xmlns:xlink="http://www.w3.org/1999/xlink" xmlns:svgjs="http://svgjs.com/svgjs"><defs id="SvgjsDefs1002"></defs><g id="SvgjsG1008"><svg xmlns="http://www.w3.org/2000/svg" viewBox="0 0 32 32" width="288" height="288"><g data-name="1" fill="#000000" class="color000 svgShape"><path d="M16,2a1,1,0,0,0-1,1V7a1,1,0,0,0,2,0V4.0507A11.993,11.993,0,1,1,7.5166,7.5171,1,1,0,0,0,6.1025,6.103,13.9968,13.9968,0,1,0,16,2Z" fill="#000000" class="color000 svgShape"></path><path d="M16,17a1,1,0,0,0,.707-1.707l-6-6a1,1,0,0,0-1.414,1.414l6,6A.9967.9967,0,0,0,16,17Z" fill="#000000" class="color000 svgShape"></path></g></svg></g></svg>